<svg version="1.1" id="Layer_1" xmlns="http://www.w3.org/2000/svg" xmlns:xlink="http://www.w3.org/1999/xlink" x="0" y="0" viewBox="0 0 385.3 209.2" style="enable-background:new 0 0 385.3 209.2" xml:space="preserve"><style>.st0{opacity:.41}.st1{fill:#86c440}.st2{fill:#fff}.st3{fill:#e6e6e5}.st4{fill:#86c442}.st5{fill:#6ca643}.st6{opacity:.15}.st7{opacity:.26;fill:#010101;enable-background:new}.st9{fill:#d6dcdb}.st10{fill:#f0efef}.st11{fill:#d1cee8}.st12{fill:#f3f3f3}.st13{fill:#919bce}.st17{fill:#6d7dbd}.st20{fill:#dee6f5}.st23{fill:#eaf0f9}.st25{fill:#93adda}.st27{fill:#102c4f}.st28{fill:#233166}.st29{fill:#1d2351}.st31{fill:#b4b4b4}.st33{fill:#223266}.st34{fill:#86c443}.st35{fill:#71ad43}.st44{fill:#22407a}.st100{fill:#b6473d}.st101{fill:#efcbac}.st107{fill:#2b4f97}</style><g class="st0"><path class="st1" d="m32.7 38.8-1.8-4.3v-.1c-.2-.5 0-1.1.5-1.4l3.4-1.9c.1 0 .1-.1.2-.1.3-.3.5-.7.4-1.2-.7-2.5-.9-5.1-.6-7.7v-.3c-.1-.4-.3-.7-.7-.9L31 19.7c-.4-.2-.7-.5-.7-.9v-.4l1.2-4.6c.1-.6.7-.9 1.3-.8l4.3.7c.4.1.8-.1 1.1-.5.4-.5.7-1 1.1-1.5.8-.9 1.6-1.7 2.5-2.4.2-.3.4-.8.2-1.2l-1.4-4.2-.1-.2c-.2-.5.1-1.1.6-1.4L45.5.4c.5-.2 1.2 0 1.5.5l2.1 3.8c.2.4.7.6 1.2.6 2-.4 4-.4 6.1-.2.5.1 1-.2 1.2-.7L59 .7c.2-.6.8-.8 1.4-.7L65 1.2c.6.1.9.7.8 1.2l-.8 5c-.1.4.1.9.5 1.1.4.3.9.6 1.3 1 .8.7 1.5 1.4 2.1 2.1.3.3.8.5 1.2.3l5-1.7c.6-.2 1.2.1 1.4.6l1.9 4.4c.2.5 0 1-.3 1.3l-.1.1-4.2 2.4c-.4.2-.6.6-.6 1.1v.1c0 .1 0 .2.1.3.3 1.4.4 2.8.3 4.2 0 .5.3.9.7 1.1l3.8 1.5c.5.2.8.8.7 1.4l-.3 1-.9 3.6c-.1.6-.7.9-1.3.8l-4.3-.5c-.5-.1-.9.1-1.1.5-.6 1-1.3 2-2.1 3-.6.7-1.3 1.4-1.9 2l.3.9 1.2 3.6c.2.4 0 .9-.4 1.2-.1.1-.2.1-.2.1l-4.4 1.9c-.5.2-1.1 0-1.4-.5l-1.5-2.6c-.2-.4-.8-.7-1.3-.5-2 .5-4.1.8-6.2.7-.5 0-.9.3-1.1.7l-1.7 4.6c-.2.5-.7.8-1.3.7l-4.7-1.2c-.6-.1-.9-.7-.8-1.2l.9-5.3c.1-.5-.1-.9-.5-1.1-.8-.5-1.6-1.1-2.4-1.8-.4-.4-.8-.7-1.2-1.1-.3-.3-.7-.4-1.1-.3l-4.8 1.6c-.8.1-1.4-.1-1.6-.7zm12.5-20.3c-2.2 3.2-2.4 6.8-1.2 9.6 4.2 9.7 17.3 8.9 20.3-1.2.7-2.6.4-5.4-1.4-8.2-4.4-6.4-13.5-6.3-17.7-.2z"/></g><g class="st0"><path class="st1" d="m115.2 110.5-4.1-7.1-.1-.2c-.5-.9-.3-2 .5-2.6l5.5-4.1c.1-.1.2-.1.3-.2.5-.6.7-1.4.4-2.1-1.8-4.2-2.7-8.7-2.7-13.3 0-.2 0-.4-.1-.5-.2-.7-.7-1.2-1.4-1.4l-5.6-1.3c-.7-.2-1.3-.8-1.5-1.5 0-.2-.1-.5 0-.7l1.1-8.3c.1-1 1-1.8 2.1-1.7l7.6.3c.8 0 1.5-.4 1.8-1 .5-1 1.1-1.9 1.7-2.8 1.1-1.7 2.4-3.3 3.8-4.7.6-.6.7-1.5.4-2.2l-3.3-7-.2-.4c-.4-.9-.1-2 .8-2.5l7.3-4.2c.9-.5 2-.3 2.6.5l4.6 6.2c.5.7 1.4 1 2.2.7 3.4-1.1 6.9-1.6 10.5-1.6.9 0 1.7-.6 1.9-1.5l1.6-6.6c.2-1 1.2-1.6 2.2-1.5l8.4 1.1c1 .1 1.7 1 1.7 2l-.4 9c0 .8.4 1.5 1 1.8.8.5 1.6.9 2.4 1.5 1.5 1 2.9 2.1 4.2 3.3.6.5 1.4.7 2.1.3l8.4-4c.9-.4 2-.1 2.5.8l4.3 7.3c.4.8.3 1.8-.3 2.4l-.2.2-6.8 5.1c-.6.5-.9 1.3-.8 2 0 .1 0 .1.1.2.1.2.1.4.2.6.8 2.3 1.2 4.7 1.5 7.2.1.8.7 1.5 1.5 1.7l7 1.7c1 .2 1.6 1.2 1.5 2.2l-.2 1.9-.8 6.5c-.1 1-1 1.8-2 1.7l-7.5-.3c-.8 0-1.5.4-1.8 1.2-.8 1.9-1.8 3.8-3 5.7-.9 1.4-1.9 2.6-2.9 3.8l.7 1.5 2.9 6c.4.7.2 1.6-.4 2.2-.1.1-.3.2-.4.3l-7.3 4.3c-.9.5-2 .3-2.6-.5l-3.1-4.2c-.5-.7-1.5-1-2.3-.7-3.4 1.4-7 2.2-10.6 2.5-.9.1-1.6.7-1.7 1.5l-2 8.4c-.2.9-1.1 1.5-2.1 1.4l-8.5-1.1c-1-.1-1.7-1-1.7-2l.4-9.3c0-.8-.4-1.5-1.2-1.9-1.6-.7-3.1-1.6-4.6-2.6-.8-.5-1.6-1.1-2.3-1.7-.6-.5-1.4-.6-2.1-.2l-8.1 3.8c-1.4 0-2.5-.4-3-1.3zm17.4-37.9c-1 2-1.8 4.3-2.1 6.9-.1.5-.1 1.2-.1 1.8.1 2.8.9 6.2 2.1 8.3 9.5 16 32 11.6 35-6.4 0-.3.1-.6.1-.9.4-2.8-.5-7.2-2-9.6-.7-1.3-1.6-2.5-2.5-3.5-8.8-10.5-24.5-8.2-30.5 3.4z"/></g><path class="st2" d="M377.9 128.6H233.3c-3.8 0-6.9-3.1-6.9-6.9V24.8c0-1.5 1.2-2.7 2.7-2.7h153c1.5 0 2.7 1.2 2.7 2.7v96.9c0 3.8-3.1 6.9-6.9 6.9z"/><path class="st3" d="M377.9 129.1H233.3c-4.1 0-7.4-3.3-7.4-7.4V24.8c0-1.8 1.5-3.2 3.2-3.2h153c1.8 0 3.2 1.5 3.2 3.2v96.9c0 4-3.3 7.4-7.4 7.4zM229 22.5c-1.2 0-2.2 1-2.2 2.2v96.9c0 3.6 2.9 6.4 6.4 6.4h144.6c3.6 0 6.4-2.9 6.4-6.4V24.8c0-1.2-1-2.2-2.2-2.2l-153-.1z"/><path class="st4" d="M241.4 99.9h6.9v17.3h-6.9z"/><path class="st5" d="M256.9 84.6h6.9v32.6h-6.9z"/><path class="st4" d="M272.5 88h6.9v29.2h-6.9z"/><path class="st5" d="M288.1 71.5h6.9v45.7h-6.9z"/><g class="st6"><path class="st7" d="M256.9 84.6h3.2v32.6h-3.2z"/></g><g class="st6"><path class="st7" d="M241.4 99.9h3.2v17.3h-3.2z"/></g><path class="st7" d="M288.1 71.5h3.2v45.7h-3.2z" style="opacity:.26"/><g class="st6"><path class="st7" d="M272.5 88h3.2v29.2h-3.2z"/></g><path class="st9" d="M298.6 122h-61.8V73.2h1v48h60.8z"/><path class="st9" d="m243.2 91.7-.7-.7 16.2-14.5 15 3.3 16.2-18.1.7.7L274 80.8l-15-3.3z"/><path class="st9" d="m291.9 65-4.6-4.4 5.9-1.5z"/><path class="st5" d="M304.5 98.6h4.7v4.7h-4.7z"/><path class="st4" d="M304.5 106.9h4.7v4.7h-4.7z"/><path class="st10" d="M310.5 109h15v2.7h-15zM310.5 100.7h15v2.7h-15z"/><path class="st5" d="M332.4 98.6h4.7v4.7h-4.7z"/><path class="st4" d="M332.4 106.9h4.7v4.7h-4.7z"/><path class="st10" d="M338.4 109h15v2.7h-15zM338.4 100.7h15v2.7h-15z"/><path class="st5" d="M357.5 98.6h4.7v4.7h-4.7z"/><path class="st4" d="M357.5 106.9h4.7v4.7h-4.7z"/><path class="st10" d="M363.5 109h9.9v2.7h-9.9zM363.5 100.7h9.9v2.7h-9.9zM236.8 38.1h136.6v2.8H236.8z"/><path class="st1" d="M382.1 21.6H229c-1.5 0-2.7 1.2-2.7 2.7v10.3h158.5V24.3c0-1.5-1.2-2.7-2.7-2.7z"/><path class="st11" d="M364.4 28.8c0 1.1-.9 2-2 2s-2-.9-2-2 .9-2 2-2 2 .9 2 2zM372.6 28.8c0 1.1-.9 2-2 2s-2-.9-2-2 .9-2 2-2 2 .9 2 2zM380.8 28.8c0 1.1-.9 2-2 2s-2-.9-2-2 .9-2 2-2 2 .9 2 2z"/><path class="st4" d="M262.2 45.9c-3.3 0-6.1 1.8-7.6 4.5l4.4 4.5v-.3c0-1.8 1.4-3.2 3.2-3.2 1.8 0 3.2 1.4 3.2 3.2s-1.4 3.2-3.2 3.2c-.5 0-.9-.1-1.3-.3-.1 0-.1-.1-.2-.1-.3-.2-.5-.4-.7-.5l-.2-.2-5.5-5.6-2.5-2.6c-.1-.1-.7-.6-.7-.6-1.5-1.3-3.5-2-5.6-2-4.8 0-8.7 3.9-8.7 8.7s3.9 8.7 8.7 8.7c3.3 0 6.1-1.8 7.6-4.5l-4.4-4.5v.3c0 1.8-1.4 3.2-3.2 3.2s-3.2-1.4-3.2-3.2 1.4-3.2 3.2-3.2c.6 0 1.1.2 1.6.4.4.2.6.5.6.5l.1.1 7.8 7.9.2.2.3.3c0 .1.7.6.7.6 1.5 1.2 3.4 2 5.5 2 4.8 0 8.7-3.9 8.7-8.7s-4-8.8-8.8-8.8z"/><path class="st12" d="M304.5 48.1h68.4v4.8h-68.4zM304.5 58h68.4v4.8h-68.4zM304.5 67.8h68.4v4.8h-68.4z"/><path class="st13" d="M86.1 178.9h39.2v28.9H86.1z"/><path style="fill:#aeb8de" d="M73.2 178.9h31.1v28.9H73.2z"/><path d="M91 183.7h-8c-.5 0-1-.4-1-1 0-.5.4-1 1-1h8c.5 0 1 .4 1 1-.1.5-.5 1-1 1z" style="fill:#35498c"/><path style="fill:#ccd6ed" d="M71.7 174h32.6v6.4H71.7z"/><path class="st17" d="M104.3 174h22v6.4h-22z"/><path transform="rotate(-14.715 96.472 191.247)" class="st1" d="M91.3 186.1h10.3v10.3H91.3z"/><path transform="rotate(-14.715 95.39 187.145)" class="st5" d="M90.2 186.3h10.3v1.7H90.2z"/><path style="fill:#f47d48" d="m93.4 161 8.2-6.6 12.1 1.5v5.1z"/><path style="fill:#f68b66" d="M81.2 154.4h20.3v6.6H81.2z"/><path class="st20" d="M99 156.7c.6 0 1 .5 1 1 0 .6-.5 1-1 1-.6 0-1-.5-1-1s.4-1 1-1z"/><path d="M99 157.2c.3 0 .6.3.6.6s-.3.6-.6.6-.6-.3-.6-.6.3-.6.6-.6z" style="fill:#1d1953"/><path style="fill:#c1d7f0" d="M90.2 156.3h6.3v3h-6.3z"/><path class="st20" d="M82.5 167.5h20.1v6.5H82.5z"/><path class="st13" d="M102.6 167.5h20.1v6.5h-20.1zM82.5 170.7h5v.1h-5z"/><path class="st13" d="M88.7 168.7h13.9v.1H88.7zM82.5 172.4h8.9v.1h-8.9z"/><path class="st23" d="M76.3 161h20.1v6.5H76.3z"/><path style="fill:#bec7e6" d="M96.4 161h20.1v6.5H96.4z"/><path class="st25" d="M76.3 164.2h5v.1h-5zM82.5 162.2h13.9v.1H82.5zM76.3 166h8.9v.1h-8.9z"/><path class="st23" d="M60.6 202h17.9v6.5H60.6z"/><path class="st17" d="M78.5 202h17.9v6.5H78.5z"/><path class="st25" d="M60.6 205.2h4.5v.1h-4.5zM66.2 203.2h12.3v.1H66.2zM60.6 206.9h7.9v.1h-7.9z"/><path class="st5" d="M108.8 184.5h7.3v23.4h-7.3z"/><path class="st1" d="M116 184.5h17.5v23.4H116z"/><circle class="st20" cx="112.4" cy="187.4" r="1.2"/><path d="M111.5 187.4c0-.5.4-.9.9-.9s.9.4.9.9-.4.9-.9.9c-.5-.1-.9-.4-.9-.9z" style="fill:#6a75b8"/><path class="st25" d="M110.7 190.3h3.4v6.2h-3.4z"/><path class="st3" d="M198.6 152.9h5.1v41.5h-5.1z"/><path class="st27" d="M198.1 153.6h5.9v4.1h-5.9zM198.1 183.4h5.9v11h-5.9zM221.7 203.7c0 2 1.6 3.6 3.6 3.6s3.6-1.6 3.6-3.6-1.6-3.6-3.6-3.6-3.6 1.6-3.6 3.6z"/><path class="st27" d="m225.2 203.5-21.3-9v-8.3l21.5 13.7zM180.4 203.7c0 2-1.6 3.6-3.6 3.6s-3.6-1.6-3.6-3.6 1.6-3.6 3.6-3.6 3.6 1.6 3.6 3.6z"/><path class="st27" d="m176.9 203.5 21.3-9v-8.3l-21.5 13.7zM197.6 203.7c0 2 1.6 3.6 3.6 3.6s3.6-1.6 3.6-3.6-1.6-3.6-3.6-3.6-3.6 1.6-3.6 3.6z"/><path class="st27" d="M200.2 203.8h2l1.8-18h-5.6z"/><path class="st28" d="M187.7 153.1 204.8 92c.8-2.9 3.5-5 6.5-5h30.9c0 .8.2 1.7.6 2.4l-21.5 67.8-55.1-.2 21.5-3.9z"/><path class="st29" d="M242.1 87c-2.1 0-3.8 1.4-4.3 3.4l-16.4 66.8h5.7c2.1 0 3.6 3.2 4.1 1.1l15.4-65.8c.5-2.8-1.6-5.5-4.5-5.5z"/><path class="st29" d="M166.1 157v6.2c0 1.8 1.4 3.2 3.2 3.2h58.6c1.8 0 3.2-1.4 3.2-3.2v-4.6c0-.9-.7-1.6-1.6-1.6h-63.4z"/><path class="st28" d="M166.1 157v6.2c0 1.8 1.4 3.2 3.2 3.2h25.9c2 0 3.6-1.6 3.6-3.6v-3.7c0-1.1-.9-2.1-2.1-2.1h-30.6z"/><path style="fill:#18231e" d="m166.2 157.1 55.1-.1-33.6-3.9z"/><path class="st31" d="m173.3 119.6 4.4 6.5c17.3-6.3 23.2-20.9 23.2-20.9l-10.1-4c-3.8 5.9-8.4 12.5-17.5 18.4"/><defs><path id="SVGID_1_" d="m173.3 119.6 4.4 6.5c17.3-6.3 23.2-20.9 23.2-20.9l-10.1-4c-3.8 5.9-8.4 12.5-17.5 18.4"/></defs><clipPath id="SVGID_00000143597003100818188300000002364262121123337639_"><use xlink:href="#SVGID_1_" style="overflow:visible"/></clipPath><path style="clip-path:url(#SVGID_00000143597003100818188300000002364262121123337639_);fill:#e6e6e5" d="M198 104.8s-.7 6.4-22.8 18.2c-4.9 2.6-1.3-7.3-1.3-7.3L190 98.8l8 6z"/><circle class="st33" cx="195.8" cy="103.1" r="5.4"/><path class="st3" d="M159.1 115.1c.1.9 0 1.8-.3 2.7-.2.6-.6 1.1-.9 1.6 5 4 18.9 6.2 18.9 6.2l1.9-8.7c-.2-.1-10.4.2-19.6-1.8z"/><path class="st31" d="M172.6 120.7s-6.5.2-13.8-3.1c0 .1 0 .1-.1.2-.2.6-.5 1.1-.9 1.5 1.8 1.6 8.2 4.9 18.1 6.1l-3.3-4.7z"/><circle class="st33" cx="177" cy="121" r="4.5"/><path class="st29" d="M177.9 123.1c-1 .4-2.1.1-2.7-.7-.8-1-.6-2.4.5-3.2.1-.1.3-.2.5-.3 1-.4 2.1-.1 2.7.7.4.5.5 1.1.4 1.7s-.4 1.1-.9 1.5c-.1.2-.3.3-.5.3z"/><path class="st31" d="M154.9 121.8c-1.8.8-3.8.8-5.6.1l1.2-3.1c2 .8 4.3-.3 5.1-2.2.8-2-.2-4.3-2.2-5.1l.8-1.9.6-.6c3.7 1.5 5.5 5 4 8.8-.7 1.8-2.1 3.2-3.9 4z"/><path class="st3" d="M158.8 117.5c.3.2 2.4-5.9-4-8.6l-.6.6c3.6 1.2 5 3.9 4.6 8z"/><path class="st31" d="m159.4 115.1-.7 2.1c.5-1.1 1.1-1.7 2.3-1.8l-1.6-.3z"/><circle class="st3" cx="154.9" cy="111.1" r=".7"/><circle class="st3" cx="151.1" cy="120.5" r=".7"/><circle class="st31" cx="158.7" cy="104.1" r=".2"/><path class="st29" d="M194.6 104.8c-.9-.6-1.2-1.7-.8-2.7.5-1.2 1.8-1.7 3-1.3.2.1.3.2.5.3.9.6 1.2 1.7.8 2.7-.2.6-.7 1-1.2 1.3-.6.2-1.2.2-1.7 0-.3-.1-.4-.2-.6-.3z"/><path class="st34" d="M219.5 96.7s10.9 5.4 9.5 11.7l-8.9 25c-1.2 5.8.2 14.8-5.5 16.3-4.5 1.2-10 2-14.9 1-4.5-1-8.8-3.4-12.2-6-5-3.7 1.1-10.4 2.4-16.5l.3-22.9c1.3-6.2 2-8.6 8.2-9.9 4.2-.8 8.7-1.4 11.6-.7 6.6 1.4 9.5 2 9.5 2z"/><path class="st35" d="M213.6 98.4s10.5 2.6 7.8 15.4c-1.8 8.3-4.7 16.4-6.6 18.7-1 1.2-1.3 2.9-.9 4.4.9 3.6 2.2 9.9.7 12.7 0 0 3.3-1.1 3.9-4.1s.8-9.9 2-13.3c1.2-3.4 6.9-19.3 6.9-19.3s4-7-.8-11-8.5-5.6-8.5-5.6l-4.5 2.1z"/><path class="st12" d="M199.3 141.5c-.5 1.1-1.6 1.6-2.4 1-.8-.6-1-2-.5-3.2.5-1.1 1.6-1.6 2.4-1 .8.7 1 2.1.5 3.2zm-.1-.7-2.2-1.7c-.2-.1-.4 0-.6.2-.1.3-.1.6.1.8l2.2 1.7c.2.1.4 0 .6-.2.1-.3.1-.7-.1-.8zM195.8 133.8c-.5 1.1-1.6 1.6-2.4 1-.8-.6-1-2-.5-3.2.5-1.1 1.6-1.6 2.4-1s1 2.1.5 3.2zm-.1-.8-2.2-1.7c-.2-.1-.4 0-.6.2-.1.3-.1.6.1.8l2.2 1.7c.2.1.4 0 .6-.2.1-.3.1-.6-.1-.8zM205.6 135.5c-.5 1.1-1.6 1.6-2.4 1-.8-.6-1-2-.5-3.2.5-1.1 1.6-1.6 2.4-1s1 2 .5 3.2zm-.1-.8-2.2-1.7c-.2-.1-.4 0-.6.2-.1.3-.1.6.1.8l2.2 1.7c.2.1.4 0 .6-.2.1-.3.1-.7-.1-.8zM210.1 103c-1.9-.3-3.8.7-5.1 2.5l1.6 3.5v-.2c.3-1.2 1.4-2.1 2.4-1.9s1.6 1.3 1.3 2.6c-.3 1.3-1.4 2.1-2.4 1.9-.3-.1-.5-.2-.7-.4l-.1-.1c-.1-.1-.2-.3-.3-.4l-.1-.2-2.1-4.4-.9-2c0-.1-.3-.5-.3-.5-.6-1-1.5-1.7-2.6-1.8-2.5-.4-5.1 1.9-5.9 5.1-.8 3.2.5 6.1 3 6.6 1.7.4 3.5-.6 4.8-2.2l-1.6-3.5v.2c-.3 1.2-1.3 2-2.2 1.9-.9-.2-1.4-1.3-1.1-2.5.3-1.2 1.3-2 2.2-1.9.3.1.6.2.8.4.2.2.3.4.3.4l2.8 6.2.1.2.1.2c0 .1.3.5.3.5.6 1 1.5 1.7 2.7 2 2.7.6 5.7-1.7 6.6-5.2.7-3.4-.8-6.5-3.6-7"/><path class="st3" d="m218.7 68.5-1.3-.2c0-.2.6-4.1 6.5-6.5l.5 1.2c-5.2 2.1-5.7 5.3-5.7 5.5z"/><path d="M222.7 63.2s-3.1 1.1-4.6 4.7l.6.2s1.2-3.1 4.3-4.5c3.1-1.4-.3-.4-.3-.4z" style="fill:#ccc"/><circle class="st34" cx="216.9" cy="71.7" r="4"/><circle class="st34" cx="224.1" cy="62.4" r="1.6"/><circle class="st34" cx="216.9" cy="71.7" r="4"/><path class="st28" d="m208.2 69.2 20 2c1.8.2 3.5 1.2 4.5 2.8.8 1.2 1.2 3 .5 5.3L228.7 94c-.4 1.4-1.4 2.7-2.7 3.4-1.4.8-3.6 1.7-6.8 1.7-3.3.1-5.6.1-7 .2-1.3 0-2.6-.4-3.6-1.1l-7-4.9c-1.5-1.1-2.5-2.8-2.6-4.7-.1-1.6 0-3.5.5-5.2.6-1.9 1.5-6 2.1-9.4.7-3 3.5-5.1 6.6-4.8z"/><defs><path id="SVGID_00000065764434297127970930000015499394287326680991_" d="m208.2 69.2 20 2c1.8.2 3.5 1.2 4.5 2.8.8 1.2 1.2 3 .5 5.3L228.7 94c-.4 1.4-1.4 2.7-2.7 3.4-1.4.8-3.6 1.7-6.8 1.7-3.3.1-5.6.1-7 .2-1.3 0-2.6-.4-3.6-1.1l-7-4.9c-1.5-1.1-2.5-2.8-2.6-4.7-.1-1.6 0-3.5.5-5.2.6-1.9 1.5-6 2.1-9.4.7-3 3.5-5.1 6.6-4.8z"/></defs><clipPath id="SVGID_00000183228023703014529760000008872108877983849359_"><use xlink:href="#SVGID_00000065764434297127970930000015499394287326680991_" style="overflow:visible"/></clipPath><path style="clip-path:url(#SVGID_00000183228023703014529760000008872108877983849359_);fill:#1d2351" d="m205.4 105.1 10.2-3.7c5-1.8 7.3-6.4 8.9-11.5l4.1-13.4c1.4-4.7-2.5-5.4-7.2-6.9l-11.9-8.2 29.1 2.2-13.8 43.9-19.4-2.4z"/><defs><path id="SVGID_00000065075465539621049380000014047517884700825491_" d="m208.2 69.2 20 2c1.8.2 3.5 1.2 4.5 2.8.8 1.2 1.2 3 .5 5.3L228.7 94c-.4 1.4-1.4 2.7-2.7 3.4-1.4.8-3.6 1.7-6.8 1.7-3.3.1-5.6.1-7 .2-1.3 0-2.6-.4-3.6-1.1l-7-4.9c-1.5-1.1-2.5-2.8-2.6-4.7-.1-1.6 0-3.5.5-5.2.6-1.9 1.5-6 2.1-9.4.7-3 3.5-5.1 6.6-4.8z"/></defs><clipPath id="SVGID_00000062191564500899434170000011471737812355136163_"><use xlink:href="#SVGID_00000065075465539621049380000014047517884700825491_" style="overflow:visible"/></clipPath><path style="clip-path:url(#SVGID_00000062191564500899434170000011471737812355136163_);fill:#1d2351" d="M216.1 70s-4.4 2.8-7.7 13.5 2.8 15.8 2.8 15.8l-12.5-2.4-8.5-15.9s7.6-17.3 7.8-17.6 11.5-2.1 11.5-2.1l6.6 8.7z"/><path class="st35" d="M214 79.5c-.5 2.1.5 4.2 2.2 4.6"/><path class="st34" d="M216.3 83.7c1.5.3 3.1-.9 3.5-2.8s-.4-3.8-1.9-4.1c-1.5-.3-3.1.9-3.5 2.8-.5 1.9.4 3.7 1.9 4.1z"/><path class="st35" d="M216.3 83.4c1.3.3 2.6-.8 3-2.5s-.4-3.2-1.6-3.5c-1.3-.3-2.6.8-3 2.5-.4 1.6.3 3.2 1.6 3.5z"/><path class="st12" d="M216.4 83.1c1.1.3 2.3-.7 2.7-2.2.3-1.5-.3-2.9-1.5-3.1-1.1-.3-2.3.7-2.7 2.2-.3 1.4.4 2.8 1.5 3.1z"/><path class="st35" d="M203.3 77.8c-.4 1.8.4 3.6 1.9 4"/><path class="st34" d="M205.3 81.4c1.3.3 2.7-.8 3-2.4.4-1.6-.4-3.2-1.7-3.5s-2.7.8-3 2.4.4 3.2 1.7 3.5z"/><path class="st35" d="M205.3 81.2c1.1.3 2.3-.7 2.6-2.1s-.3-2.8-1.4-3c-1.1-.3-2.3.7-2.6 2.1s.3 2.7 1.4 3z"/><path class="st12" d="M205.4 80.9c1 .2 2-.6 2.3-1.9s-.3-2.5-1.2-2.7c-1-.2-2 .6-2.3 1.9-.3 1.3.2 2.5 1.2 2.7z"/><path class="st34" d="M214.7 88.3c.8.4-2.4 4.5-7.3 3.5-4.9-1.1-6.1-6.1-5.2-6.2.8-.2 2.7 2.7 5.8 3.3 3.1.7 6-1.1 6.7-.6z"/><path class="st35" d="M214.7 88.3c-.1 0 .2.2.1.1-.4 1.2-3.6 3.7-7.7 2.8-2.4-.5-3.9-2-4.7-3.4.7 1.5 2.3 3.3 5 3.9 4.9 1.1 8.1-3 7.3-3.4zM231.2 85c-.5 1.4-1.1 2.7-1.8 3.6l-.5 1.7-1.2-.4c-.9-.3-1.1-3.3-.4-6.1.7-2.7 2.5-5.3 3.6-5l1.4.4-.5 1.6c0 1.3-.2 2.8-.6 4.2z"/><path class="st34" d="M232.4 85.4c.9-2.7.7-5.8-.4-6.2-1.1-.3-2.9 2.3-3.6 5-.7 2.8-.5 5.8.4 6.1.9.3 2.7-2.2 3.6-4.9z"/><path d="M229.9 88.7c-.4.5-1.1.3-1.2-.3-.1-1 0-2.4.4-4 .5-1.8 1.3-3.1 1.9-3.9.4-.4 1-.2 1.1.3.1 1 .1 2.6-.4 4.3-.5 1.6-1.2 2.8-1.8 3.6z" style="fill:#003340"/><path class="st34" d="M230.1 87.1c-.2.3-.7.2-.7-.2 0-.6.1-1.4.4-2.3.3-1.1.7-1.9 1-2.5.2-.3.7-.2.7.2 0 .7-.1 1.6-.5 2.7-.2.8-.6 1.5-.9 2.1z"/><path class="st35" d="M218.1 67.9s1.3.7 1.1 2.4l1.5.1s-.6-2-2.6-2.5zM222.7 63.2s1.4.9 3-.6c0 0 .1 1-1.2 1.4-1.3.3-1.8-.8-1.8-.8z"/><defs><path id="SVGID_00000105401810531610490640000015622257186395909768_" d="M216.4 83.1c1.1.3 2.3-.7 2.7-2.2.3-1.5-.3-2.9-1.5-3.1-1.1-.3-2.3.7-2.7 2.2-.3 1.4.4 2.8 1.5 3.1z"/></defs><clipPath id="SVGID_00000078738028836818705180000005589527761885551519_"><use xlink:href="#SVGID_00000105401810531610490640000015622257186395909768_" style="overflow:visible"/></clipPath><path style="clip-path:url(#SVGID_00000078738028836818705180000005589527761885551519_);fill:#233166" d="M215.9 83c.9.2 1.7-.5 2-1.6s-.2-2.1-1.1-2.3c-.9-.2-1.7.5-2 1.6-.2 1 .3 2.1 1.1 2.3z"/><defs><path id="SVGID_00000164507243508441844260000012975428228065768348_" d="M216.4 83.1c1.1.3 2.3-.7 2.7-2.2.3-1.5-.3-2.9-1.5-3.1-1.1-.3-2.3.7-2.7 2.2-.3 1.4.4 2.8 1.5 3.1z"/></defs><clipPath id="SVGID_00000091714288812088221290000013686930638652949655_"><use xlink:href="#SVGID_00000164507243508441844260000012975428228065768348_" style="overflow:visible"/></clipPath><path style="opacity:.57;clip-path:url(#SVGID_00000091714288812088221290000013686930638652949655_);fill:#fff;enable-background:new" d="M217 82.2c.5.1.9-.3 1.1-.9.1-.6-.1-1.1-.6-1.2s-.9.3-1.1.9c-.1.5.2 1.1.6 1.2z"/><defs><path id="SVGID_00000116219771799933965310000011550397953185764778_" d="M205.4 80.9c1 .2 2-.6 2.3-1.9s-.3-2.5-1.2-2.7c-1-.2-2 .6-2.3 1.9-.3 1.3.2 2.5 1.2 2.7z"/></defs><clipPath id="SVGID_00000183215400123508741460000010295499170627157436_"><use xlink:href="#SVGID_00000116219771799933965310000011550397953185764778_" style="overflow:visible"/></clipPath><path style="clip-path:url(#SVGID_00000183215400123508741460000010295499170627157436_);fill:#233166" d="M205 80.9c.7.2 1.5-.5 1.7-1.4s-.2-1.8-.9-2-1.5.5-1.7 1.4c-.2.9.2 1.8.9 2z"/><defs><path id="SVGID_00000058567533549686432910000016568735568508937125_" d="M205.4 80.9c1 .2 2-.6 2.3-1.9s-.3-2.5-1.2-2.7c-1-.2-2 .6-2.3 1.9-.3 1.3.2 2.5 1.2 2.7z"/></defs><clipPath id="SVGID_00000173153022732145088360000014317947709266482104_"><use xlink:href="#SVGID_00000058567533549686432910000016568735568508937125_" style="overflow:visible"/></clipPath><path style="opacity:.57;clip-path:url(#SVGID_00000173153022732145088360000014317947709266482104_);fill:#fff;enable-background:new" d="M205.9 80.2c.4.1.8-.2.9-.7.1-.5-.1-1-.5-1.1s-.8.2-.9.7.1 1 .5 1.1z"/><path class="st34" d="M129.2 117.5c2 .6 4 .2 5.1-.2.5-.2.8-.3.8-.3l8.8 4 .2.1.1-7.6s-.2 0-.6-.1h-.2c-2.1-.5-8.5-2.3-11.2-6.3-.2-.2-.3-.5-.4-.8 0-.1-.1-.2-.1-.3l-.1-.1c-2.8-5.4-8.4-11.7-9.1-11.6-.6 0 3.8 22.2 6.7 23.2z"/><path class="st44" d="M123.4 110.6s2.2 1 2.2.6c0-.2 4-2 6-3.9.9-.9 1.2-1.7.8-2.6-1.6-3-6.2-13-10.8-13.4-.6-.1-1 .1-1.4.3-3.6 2.5 3.2 19 3.2 19z"/><path class="st35" d="m128.5 108.6-5 4.1 10.7 4.7c.5-.2.8-.3.8-.3l8.8 4 2-7.1s-2.3-1.1-2.4-.6c-.2 1.2-.7 3.7-1.3 4.4-.8.9-8.3-2.1-8.7-2.3-.4-.3.4-1.8.4-1.8s-3.9-4.4-1.6-6.6l-.6-1-.1-.1-1.9.1-1.1 2.5z"/><path class="st34" d="M124.2 117.8c.4 1.3.8 2.5 1.2 3.6.9 2.3 1.7 3.9 2.4 4.2h.1c2.9.8 5.2-1.8 5.2-1.8l1.9.9 1.8.8.9.4 4.2 2 .1-.2 2-6.7s-1-.4-2.6-1c-.4-.2-.8-.3-1.2-.5-.1 0-.2-.1-.3-.1-.2-.1-.4-.2-.5-.3-3.6-1.7-8.2-4.5-9.9-7.7-2.9-5.6-9.1-12.3-9.7-12.2-.4.1 1.9 10.8 4.4 18.6z"/><path class="st44" d="M142.5 128.4c6.4 1.9 21.3-1.8 21.3-1.8l.1.1 2.1 1.7 1 .8 15.9 13s1.6 1.9 3.8 4.3c3.4 3.7 8.1 8.5 10.3 9 3.6.9 13.6 1.2 14.6.6 1.8-1 3.1-2.5 4.1-4.2.7-1.1 1.2-2.3 1.6-3.4.1-.3.2-.7.3-1 0-.1 0-.2.1-.3.2-1.8-1.1-3.7-2.9-5.5-1.2-1.2-2.5-2.2-3.7-3.1l-4.4-2.4-3.6-1s-.4-.3-1.1-.7c-.6-.4-1.5-1-2.6-1.8-.6-.4-1.2-.8-1.9-1.3-7.6-5.2-20.4-13.7-21.1-13.8-1.1-.2-1.5-.2-4.2-.2-5.3 0-28.2-5.2-28.2-5.2-.2 1.5-.7 3.5-1.2 5.5-.2 1-.5 2-.7 3-1 3.9-1.4 7.1.4 7.7z"/><path class="st44" d="M135.8 132.1c.1 0 .3.1.7.2 2.6.8 23.8 5.3 24.7 5.6.1.1.2.1.2.1l1.6-.6s.8 1 2.3 2.5l.1.1c4.8 5.1 15.7 15.2 23.8 15.8 10.5.7 7.9-.7 7.9-.7l-1.4-1.3-9.4-8.8-2.3-1.9-16.1-13.3-2.1-1.8-1.6-1.3s-.1 0-.2-.1h-.1c-.1 0-.3-.1-.5-.1-.1 0-.1 0-.2-.1-.2-.1-.4-.1-.7-.2-1.7-.5-14.5-4.8-20.2-6.7-1.7-.6-2.7-.9-2.8-.9l-.8.1 1.3.7h.1l.2.1v.2l-1.3 6.8-.9-.4-.2-.1-.9-.5-.1.2c-.1 0-1.7 6.1-1.1 6.4z"/><defs><path id="SVGID_00000036249111040637786290000002096609886024173976_" d="M1 1h1L1 2z"/></defs><defs><path id="SVGID_00000128481195352258041390000003293082509222030483_" d="M-1-1h-1l1-1z"/></defs><clipPath id="SVGID_00000109018156034750306100000013807461806781475479_"><use xlink:href="#SVGID_00000036249111040637786290000002096609886024173976_" style="overflow:visible"/></clipPath><clipPath id="SVGID_00000007425435055512519870000007804704429576812957_" style="clip-path:url(#SVGID_00000109018156034750306100000013807461806781475479_)"><use xlink:href="#SVGID_00000128481195352258041390000003293082509222030483_" style="overflow:visible"/></clipPath><defs><filter id="Adobe_OpacityMaskFilter" filterUnits="userSpaceOnUse" x="135.7" y="118.6" width="61.7" height="37.4"><feColorMatrix values="1 0 0 0 0 0 1 0 0 0 0 0 1 0 0 0 0 0 1 0"/></filter></defs><mask maskUnits="userSpaceOnUse" x="135.7" y="118.6" width="61.7" height="37.4" id="SVGID_00000003094069256564023330000002211905191700368788_"><g style="filter:url(#Adobe_OpacityMaskFilter)"><defs><path id="SVGID_00000134966473913296749160000005053898723423262909_" d="M1 1h1L1 2z"/></defs><defs><path id="SVGID_00000148640953985586874340000009067176711136993932_" d="M-1-1h-1l1-1z"/></defs><clipPath id="SVGID_00000013158507103879061310000016073982287916853914_" style="clip-path:url(#SVGID_00000007425435055512519870000007804704429576812957_)"><use xlink:href="#SVGID_00000134966473913296749160000005053898723423262909_" style="overflow:visible"/></clipPath><clipPath id="SVGID_00000104688297995519447860000001785705363723486870_" style="clip-path:url(#SVGID_00000013158507103879061310000016073982287916853914_)"><use xlink:href="#SVGID_00000148640953985586874340000009067176711136993932_" style="overflow:visible"/></clipPath><linearGradient id="SVGID_00000095321508472866479680000014990834830072313263_" gradientUnits="userSpaceOnUse" x1="724.88" y1="54.523" x2="747.796" y2="48.192" gradientTransform="rotate(-178.188 456.176 97.877)"><stop offset="0" style="stop-color:#595959"/><stop offset="1" style="stop-color:#fff"/></linearGradient><path style="clip-path:url(#SVGID_00000104688297995519447860000001785705363723486870_);fill:url(#SVGID_00000095321508472866479680000014990834830072313263_)" d="M135.8 132.1c.1 0 .3.1.7.2 2.6.8 23.8 5.3 24.7 5.6.1.1.2.1.2.1l1.6-.6s.8 1 2.3 2.5l.1.1c4.8 5.1 15.7 15.2 23.8 15.8 10.5.7 7.9-.7 7.9-.7l-1.4-1.3c-4.4-2.8-8.1-7-11.7-10.7-12.5-12.9-8.9-20.1-9.1-20.7-.2-.6-5.9 3.6-5.9 3.6l-6.4.2c-1.7-.5-14.5-4.8-20.2-6.7-1.7-.6-2.7-.9-2.8-.9l-.8.1 1.3.7h.1l.2.1v.2l-1.3 6.8-.9-.4-.2-.1-.9-.5-.1.2c-.2 0-1.8 6.1-1.2 6.4z"/></g></mask><linearGradient id="SVGID_00000162317517545268413020000007592156957479403959_" gradientUnits="userSpaceOnUse" x1="724.88" y1="54.523" x2="747.796" y2="48.192" gradientTransform="rotate(-178.188 456.176 97.877)"><stop offset="0" style="stop-color:#595959"/><stop offset="1" style="stop-color:#fff"/></linearGradient><path style="clip-path:url(#SVGID_00000007425435055512519870000007804704429576812957_);mask:url(#SVGID_00000003094069256564023330000002211905191700368788_);fill:url(#SVGID_00000162317517545268413020000007592156957479403959_)" d="M135.8 132.1c.1 0 .3.1.7.2 2.6.8 23.8 5.3 24.7 5.6.1.1.2.1.2.1l1.6-.6s.8 1 2.3 2.5l.1.1c4.8 5.1 15.7 15.2 23.8 15.8 10.5.7 7.9-.7 7.9-.7l-1.4-1.3c-4.4-2.8-8.1-7-11.7-10.7-12.5-12.9-8.9-20.1-9.1-20.7-.2-.6-5.9 3.6-5.9 3.6l-6.4.2c-1.7-.5-14.5-4.8-20.2-6.7-1.7-.6-2.7-.9-2.8-.9l-.8.1 1.3.7h.1l.2.1v.2l-1.3 6.8-.9-.4-.2-.1-.9-.5-.1.2c-.2 0-1.8 6.1-1.2 6.4z"/><path class="st44" d="M135.8 132.1c.1 0 .3.1.7.2 2.6.8 23.8 5.3 24.7 5.6.1.1.2.1.2.1l1.6-.6s.8 1 2.3 2.5l.1.1c4.8 5.1 15.7 15.2 23.8 15.8 10.5.7 7.9-.7 7.9-.7l-1.4-1.3c-4.4-2.8-8.1-7-11.7-10.7-12.5-12.9-8.9-20.1-9.1-20.7-.2-.6-5.9 3.6-5.9 3.6l-6.4.2c-1.7-.5-14.5-4.8-20.2-6.7-1.7-.6-2.7-.9-2.8-.9l-.8.1 1.3.7h.1l.2.1v.2l-1.3 6.8-.9-.4-.2-.1-.9-.5-.1.2c-.2 0-1.8 6.1-1.2 6.4z"/><defs><path id="SVGID_00000124845696137422904090000002236964113946114238_" d="M1 1h1L1 2z"/></defs><defs><path id="SVGID_00000036251909446880897110000015970408953673683345_" d="M-1-1h-1l1-1z"/></defs><clipPath id="SVGID_00000021083738691314315050000014662310427338041242_"><use xlink:href="#SVGID_00000124845696137422904090000002236964113946114238_" style="overflow:visible"/></clipPath><clipPath id="SVGID_00000035528158555355669280000005115206606208376752_" style="clip-path:url(#SVGID_00000021083738691314315050000014662310427338041242_)"><use xlink:href="#SVGID_00000036251909446880897110000015970408953673683345_" style="overflow:visible"/></clipPath><defs><filter id="Adobe_OpacityMaskFilter_00000078739263070766772440000000719696145362892979_" filterUnits="userSpaceOnUse" x="119.1" y="91.7" width="12.8" height="19.6"><feColorMatrix values="1 0 0 0 0 0 1 0 0 0 0 0 1 0 0 0 0 0 1 0"/></filter></defs><mask maskUnits="userSpaceOnUse" x="119.1" y="91.7" width="12.8" height="19.6" id="SVGID_00000023252262048119146340000002261807210103795855_"><g style="filter:url(#Adobe_OpacityMaskFilter_00000078739263070766772440000000719696145362892979_)"><defs><path id="SVGID_00000073720627023294925280000000020331157610824093_" d="M1 1h1L1 2z"/></defs><defs><path id="SVGID_00000128485832024820962210000005329889048729456536_" d="M-1-1h-1l1-1z"/></defs><clipPath id="SVGID_00000176044275918899955380000008952495594940195236_" style="clip-path:url(#SVGID_00000035528158555355669280000005115206606208376752_)"><use xlink:href="#SVGID_00000073720627023294925280000000020331157610824093_" style="overflow:visible"/></clipPath><clipPath id="SVGID_00000092452275827145873150000007342482412038600584_" style="clip-path:url(#SVGID_00000176044275918899955380000008952495594940195236_)"><use xlink:href="#SVGID_00000128485832024820962210000005329889048729456536_" style="overflow:visible"/></clipPath><linearGradient id="SVGID_00000181795503742212722270000016151472416597981588_" gradientUnits="userSpaceOnUse" x1="759.508" y1="88.797" x2="756.928" y2="85.142" gradientTransform="matrix(-.9985 .0555 -.0814 -.942 880.115 134.283)"><stop offset="0" style="stop-color:#595959"/><stop offset="1" style="stop-color:#fff"/></linearGradient><path style="clip-path:url(#SVGID_00000092452275827145873150000007342482412038600584_);fill:url(#SVGID_00000181795503742212722270000016151472416597981588_)" d="M123.4 110.6s2.2 1 2.2.6c0-.2 4-2 6-3.9l.3-.9c-7.4-1.2-13.3-12.3-11.7-14.7-3.6 2.4 3.2 18.9 3.2 18.9z"/></g></mask><linearGradient id="SVGID_00000142135318087773002020000007288645902176717184_" gradientUnits="userSpaceOnUse" x1="759.508" y1="88.797" x2="756.928" y2="85.142" gradientTransform="matrix(-.9985 .0555 -.0814 -.942 880.115 134.283)"><stop offset="0" style="stop-color:#595959"/><stop offset="1" style="stop-color:#fff"/></linearGradient><path style="clip-path:url(#SVGID_00000035528158555355669280000005115206606208376752_);mask:url(#SVGID_00000023252262048119146340000002261807210103795855_);fill:url(#SVGID_00000142135318087773002020000007288645902176717184_)" d="M123.4 110.6s2.2 1 2.2.6c0-.2 4-2 6-3.9l.3-.9c-7.4-1.2-13.3-12.3-11.7-14.7-3.6 2.4 3.2 18.9 3.2 18.9z"/><path class="st29" d="M123.4 110.6s2.2 1 2.2.6c0-.2 4-2 6-3.9l.3-.9c-7.4-1.2-13.3-12.3-11.7-14.7-3.6 2.4 3.2 18.9 3.2 18.9z"/><defs><path id="SVGID_00000117672940547783203430000018417781189742057141_" d="M1 1h1L1 2z"/></defs><defs><path id="SVGID_00000180324586818838262980000009103819463107312049_" d="M-1-1h-1l1-1z"/></defs><clipPath id="SVGID_00000080168952250648074490000018376101804200338066_"><use xlink:href="#SVGID_00000117672940547783203430000018417781189742057141_" style="overflow:visible"/></clipPath><clipPath id="SVGID_00000073001434815399149390000018350302481762880128_" style="clip-path:url(#SVGID_00000080168952250648074490000018376101804200338066_)"><use xlink:href="#SVGID_00000180324586818838262980000009103819463107312049_" style="overflow:visible"/></clipPath><defs><filter id="Adobe_OpacityMaskFilter_00000167369948272043616320000004108867047753897390_" filterUnits="userSpaceOnUse" x="135.6" y="125.6" width="3.3" height="6.7"><feColorMatrix values="1 0 0 0 0 0 1 0 0 0 0 0 1 0 0 0 0 0 1 0"/></filter></defs><mask maskUnits="userSpaceOnUse" x="135.6" y="125.6" width="3.3" height="6.7" id="SVGID_00000119113180925020753830000012060360724529428103_"><g style="filter:url(#Adobe_OpacityMaskFilter_00000167369948272043616320000004108867047753897390_)"><defs><path id="SVGID_00000071522789661814697330000003275657578428944774_" d="M1 1h1L1 2z"/></defs><defs><path id="SVGID_00000080175132687945958530000004004583913938190989_" d="M-1-1h-1l1-1z"/></defs><clipPath id="SVGID_00000167360472544489723110000017463632769566560677_" style="clip-path:url(#SVGID_00000073001434815399149390000018350302481762880128_)"><use xlink:href="#SVGID_00000071522789661814697330000003275657578428944774_" style="overflow:visible"/></clipPath><clipPath id="SVGID_00000117674370664924359930000009546080148847615381_" style="clip-path:url(#SVGID_00000167360472544489723110000017463632769566560677_)"><use xlink:href="#SVGID_00000080175132687945958530000004004583913938190989_" style="overflow:visible"/></clipPath><linearGradient id="SVGID_00000071538014661638531480000010676801922376174248_" gradientUnits="userSpaceOnUse" x1="347.862" y1="-526.586" x2="351.723" y2="-518.355" gradientTransform="scale(1 -1) rotate(4.301 -4986.228 -3164.405)"><stop offset="0" style="stop-color:#595959"/><stop offset="1" style="stop-color:#fff"/></linearGradient><path style="clip-path:url(#SVGID_00000117674370664924359930000009546080148847615381_);fill:url(#SVGID_00000071538014661638531480000010676801922376174248_)" d="M138.8 127.2s-1.1 4.5-2.4 5.1c-.4-.1-.6-.2-.7-.2-.6-.3 1.1-6.5 1.1-6.5l2.1.9-.1.7z"/></g></mask><linearGradient id="SVGID_00000005960182888437219780000005749057207552471988_" gradientUnits="userSpaceOnUse" x1="347.862" y1="-526.586" x2="351.723" y2="-518.355" gradientTransform="scale(1 -1) rotate(4.301 -4986.228 -3164.405)"><stop offset="0" style="stop-color:#595959"/><stop offset="1" style="stop-color:#fff"/></linearGradient><path style="clip-path:url(#SVGID_00000073001434815399149390000018350302481762880128_);mask:url(#SVGID_00000119113180925020753830000012060360724529428103_);fill:url(#SVGID_00000005960182888437219780000005749057207552471988_)" d="M138.8 127.2s-1.1 4.5-2.4 5.1c-.4-.1-.6-.2-.7-.2-.6-.3 1.1-6.5 1.1-6.5l2.1.9-.1.7z"/><linearGradient id="SVGID_00000047760687755265217710000005991033973011392162_" gradientUnits="userSpaceOnUse" x1="347.862" y1="-526.586" x2="351.723" y2="-518.355" gradientTransform="scale(1 -1) rotate(4.301 -4986.228 -3164.405)"><stop offset="0" style="stop-color:#1e376a"/><stop offset="1" style="stop-color:#580b2b"/></linearGradient><path style="opacity:.74;fill:url(#SVGID_00000047760687755265217710000005991033973011392162_);enable-background:new" d="M138.8 127.2s-1.1 4.5-2.4 5.1c-.4-.1-.6-.2-.7-.2-.6-.3 1.1-6.5 1.1-6.5l2.1.9-.1.7z"/><defs><path id="SVGID_00000028322992090598968690000015061084595258916253_" d="M1 1h1L1 2z"/></defs><defs><path id="SVGID_00000096017286434509639490000009923736442254683571_" d="M-1-1h-1l1-1z"/></defs><clipPath id="SVGID_00000142166348837869469320000006273544220636709763_"><use xlink:href="#SVGID_00000028322992090598968690000015061084595258916253_" style="overflow:visible"/></clipPath><clipPath id="SVGID_00000146494223693791579210000000757345931966424737_" style="clip-path:url(#SVGID_00000142166348837869469320000006273544220636709763_)"><use xlink:href="#SVGID_00000096017286434509639490000009923736442254683571_" style="overflow:visible"/></clipPath><defs><filter id="Adobe_OpacityMaskFilter_00000039100512000970863520000005872976544963311528_" filterUnits="userSpaceOnUse" x="152.9" y="134" width="12.6" height="3.9"><feColorMatrix values="1 0 0 0 0 0 1 0 0 0 0 0 1 0 0 0 0 0 1 0"/></filter></defs><mask maskUnits="userSpaceOnUse" x="152.9" y="134" width="12.6" height="3.9" id="SVGID_00000168816563347370168920000015758445527617670286_"><g style="filter:url(#Adobe_OpacityMaskFilter_00000039100512000970863520000005872976544963311528_)"><defs><path id="SVGID_00000035510512253686749080000014183200732037782941_" d="M1 1h1L1 2z"/></defs><defs><path id="SVGID_00000032627865434990224360000004660769165278881671_" d="M-1-1h-1l1-1z"/></defs><clipPath id="SVGID_00000108993031597353404770000010474136597793495208_" style="clip-path:url(#SVGID_00000146494223693791579210000000757345931966424737_)"><use xlink:href="#SVGID_00000035510512253686749080000014183200732037782941_" style="overflow:visible"/></clipPath><clipPath id="SVGID_00000097495609096199590800000007341897134385878169_" style="clip-path:url(#SVGID_00000108993031597353404770000010474136597793495208_)"><use xlink:href="#SVGID_00000032627865434990224360000004660769165278881671_" style="overflow:visible"/></clipPath><linearGradient id="SVGID_00000168089764661768208720000017345228756470814111_" gradientUnits="userSpaceOnUse" x1="370.907" y1="-579.84" x2="372.054" y2="-584.403" gradientTransform="matrix(1 -.0034 -.0034 -1 -213.783 -444.616)"><stop offset="0" style="stop-color:#595959"/><stop offset="1" style="stop-color:#fff"/></linearGradient><path style="clip-path:url(#SVGID_00000097495609096199590800000007341897134385878169_);fill:url(#SVGID_00000168089764661768208720000017345228756470814111_)" d="M161.2 137.9c-.9-.4-4.2-1.7-5.8-2.2-.4-.1-1.2-.4-2.5-.9.3.1 6.7 1.2 7 1.2s5.1-2.3 5.6-2c.3.2-2.4 3.3-4.3 3.9z"/></g></mask><linearGradient id="SVGID_00000103986672851203447260000016521032449769854141_" gradientUnits="userSpaceOnUse" x1="370.907" y1="-579.84" x2="372.054" y2="-584.403" gradientTransform="matrix(1 -.0034 -.0034 -1 -213.783 -444.616)"><stop offset="0" style="stop-color:#595959"/><stop offset="1" style="stop-color:#fff"/></linearGradient><path style="clip-path:url(#SVGID_00000146494223693791579210000000757345931966424737_);mask:url(#SVGID_00000168816563347370168920000015758445527617670286_);fill:url(#SVGID_00000103986672851203447260000016521032449769854141_)" d="M161.2 137.9c-.9-.4-4.2-1.7-5.8-2.2-.4-.1-1.2-.4-2.5-.9.3.1 6.7 1.2 7 1.2s5.1-2.3 5.6-2c.3.2-2.4 3.3-4.3 3.9z"/><linearGradient id="SVGID_00000018947536942839594390000014396154593328533148_" gradientUnits="userSpaceOnUse" x1="370.907" y1="-579.84" x2="372.054" y2="-584.403" gradientTransform="matrix(1 -.0034 -.0034 -1 -213.783 -444.616)"><stop offset="0" style="stop-color:#1e376a"/><stop offset="1" style="stop-color:#580b2b"/></linearGradient><path style="opacity:.3;fill:url(#SVGID_00000018947536942839594390000014396154593328533148_);enable-background:new" d="M161.2 137.9c-.9-.4-4.2-1.7-5.8-2.2-.4-.1-1.2-.4-2.5-.9.3.1 6.7 1.2 7 1.2s5.1-2.3 5.6-2c.3.2-2.4 3.3-4.3 3.9z"/><path class="st35" d="m136.9 125.5.9.4.2.1.9.4 1.3-6.8v-.2l-.2-.1h-.1c-.2-.1-.3-.1-.5-.2-.2 2.5-1.6 5.3-2.5 6.4z"/><path class="st44" d="M129.3 124.7s-2.5-7.9-2.6-8.3 5.2-4.2 3.3-6.7c-1.9-2.5-6.7-13.2-11.4-13.5-4.2-.3 10.7 28.5 10.7 28.5z"/><path class="st29" d="M129.7 127c-.1.1-.8.7-1.2 1.1 1.5-1.7-2.1-8.1-2.1-8.1l.8-1.3.8.3c1.5 2.8 2.9 6.2 1.7 8z"/><path class="st29" d="m127.3 118.6-.8 1.3s3.6 6.4 2.1 8.1c-.1.1-.3.2-.3.2l-13-32.8s2-.6 3.4.7 3.6 4.5 4.9 8.6c1.7 5 1.8 7.8 2.7 10.4.3.9 1.1 2.3 1.8 3.8l-.8-.3z"/><path d="M121.8 121s-4.1-5-6.9-9.8-2.8-14.8.3-15.7c3.1-.9 6.4 6.9 7.2 9 .8 2.1 3.4 11.2 4.3 12.8.9 1.7 4.5 9.4 1.6 11-3 1.6-6.5-7.3-6.5-7.3z" style="fill:#18222b"/><defs><path id="SVGID_00000062899152481032181490000011067762437488546436_" d="M1 1h1L1 2z"/></defs><defs><path id="SVGID_00000134234853377625957130000000618515329042572203_" d="M-1-1h-1l1-1z"/></defs><clipPath id="SVGID_00000051347464214499331080000011613591277403761831_"><use xlink:href="#SVGID_00000062899152481032181490000011067762437488546436_" style="overflow:visible"/></clipPath><clipPath id="SVGID_00000072970084112502248350000012166146429530793135_" style="clip-path:url(#SVGID_00000051347464214499331080000011613591277403761831_)"><use xlink:href="#SVGID_00000134234853377625957130000000618515329042572203_" style="overflow:visible"/></clipPath><defs><filter id="Adobe_OpacityMaskFilter_00000039823904295448326340000010127295264677481893_" filterUnits="userSpaceOnUse" x="142.2" y="120.2" width="55.8" height="36"><feColorMatrix values="1 0 0 0 0 0 1 0 0 0 0 0 1 0 0 0 0 0 1 0"/></filter></defs><mask maskUnits="userSpaceOnUse" x="142.2" y="120.2" width="55.8" height="36" id="SVGID_00000026123406933463930820000003999498267938711949_"><g style="filter:url(#Adobe_OpacityMaskFilter_00000039823904295448326340000010127295264677481893_)"><defs><path id="SVGID_00000075155812020377776700000007645151451908146106_" d="M1 1h1L1 2z"/></defs><defs><path id="SVGID_00000137124116028916027810000014291487960105238443_" d="M-1-1h-1l1-1z"/></defs><clipPath id="SVGID_00000151516024651087560650000016516735449778255292_" style="clip-path:url(#SVGID_00000072970084112502248350000012166146429530793135_)"><use xlink:href="#SVGID_00000075155812020377776700000007645151451908146106_" style="overflow:visible"/></clipPath><clipPath id="SVGID_00000157268971042880485620000008670213448461947314_" style="clip-path:url(#SVGID_00000151516024651087560650000016516735449778255292_)"><use xlink:href="#SVGID_00000137124116028916027810000014291487960105238443_" style="overflow:visible"/></clipPath><linearGradient id="SVGID_00000093894603503380966690000012675255760421144767_" gradientUnits="userSpaceOnUse" x1="792.061" y1="50.693" x2="745.702" y2="48.701" gradientTransform="rotate(-178.188 456.176 97.877)"><stop offset="0" style="stop-color:#595959"/><stop offset="1" style="stop-color:#fff"/></linearGradient><path style="clip-path:url(#SVGID_00000157268971042880485620000008670213448461947314_);fill:url(#SVGID_00000093894603503380966690000012675255760421144767_)" d="M189 155.7c-8.1-.6-18.9-10.7-23.8-15.8 1.2 1.2 15.6 10.4.5-10.3-.2-.3-23.3-9-23.5-9.3-.6-.8 22.3 6.4 21.9 5.8.2.1 4.7.4 4.7.4s8.5 15.9 17.5 23.4c7 5.9 11.6 6.3 11.6 6.3s1.7.2-8.9-.5z"/></g></mask><linearGradient id="SVGID_00000145047029002584920210000005798153814371841214_" gradientUnits="userSpaceOnUse" x1="792.061" y1="50.693" x2="745.702" y2="48.701" gradientTransform="rotate(-178.188 456.176 97.877)"><stop offset="0" style="stop-color:#595959"/><stop offset="1" style="stop-color:#fff"/></linearGradient><path style="clip-path:url(#SVGID_00000072970084112502248350000012166146429530793135_);mask:url(#SVGID_00000026123406933463930820000003999498267938711949_);fill:url(#SVGID_00000145047029002584920210000005798153814371841214_)" d="M189 155.7c-8.1-.6-18.9-10.7-23.8-15.8 1.2 1.2 15.6 10.4.5-10.3-.2-.3-23.3-9-23.5-9.3-.6-.8 22.3 6.4 21.9 5.8.2.1 4.7.4 4.7.4s8.5 15.9 17.5 23.4c7 5.9 11.6 6.3 11.6 6.3s1.7.2-8.9-.5z"/><path d="M189 155.7c-8.1-.6-18.9-10.7-23.8-15.8 1.2 1.2 15.6 10.4.5-10.3-.2-.3-23.3-9-23.5-9.3-.6-.8 22.3 6.4 21.9 5.8.2.1 4.7.4 4.7.4s8.5 15.9 17.5 23.4c7 5.9 11.6 6.3 11.6 6.3s1.7.2-8.9-.5z" style="fill:#243962"/><defs><path id="SVGID_00000136385534345555206310000004148420405042478773_" d="M1 1h1L1 2z"/></defs><defs><path id="SVGID_00000135680594063156459790000014266681354149135772_" d="M-1-1h-1l1-1z"/></defs><clipPath id="SVGID_00000036930336018720743900000013920947405179525514_"><use xlink:href="#SVGID_00000136385534345555206310000004148420405042478773_" style="overflow:visible"/></clipPath><clipPath id="SVGID_00000141424915330815369850000002142803649901220245_" style="clip-path:url(#SVGID_00000036930336018720743900000013920947405179525514_)"><use xlink:href="#SVGID_00000135680594063156459790000014266681354149135772_" style="overflow:visible"/></clipPath><defs><filter id="Adobe_OpacityMaskFilter_00000043444874067435781420000007449653409909949603_" filterUnits="userSpaceOnUse" x="142.6" y="119.6" width="31" height="7.2"><feColorMatrix values="1 0 0 0 0 0 1 0 0 0 0 0 1 0 0 0 0 0 1 0"/></filter></defs><mask maskUnits="userSpaceOnUse" x="142.6" y="119.6" width="31" height="7.2" id="SVGID_00000073716154920401777170000013860566331383222948_"><g style="filter:url(#Adobe_OpacityMaskFilter_00000043444874067435781420000007449653409909949603_)"><defs><path id="SVGID_00000027562060603317625610000012522915494309774267_" d="M1 1h1L1 2z"/></defs><defs><path id="SVGID_00000030449907611725619140000014111334331764131742_" d="M-1-1h-1l1-1z"/></defs><clipPath id="SVGID_00000127734321236187815690000011032169294751794309_" style="clip-path:url(#SVGID_00000141424915330815369850000002142803649901220245_)"><use xlink:href="#SVGID_00000027562060603317625610000012522915494309774267_" style="overflow:visible"/></clipPath><clipPath id="SVGID_00000098210046589424803680000012486974035241261244_" style="clip-path:url(#SVGID_00000127734321236187815690000011032169294751794309_)"><use xlink:href="#SVGID_00000030449907611725619140000014111334331764131742_" style="overflow:visible"/></clipPath><linearGradient id="SVGID_00000003825387725532221530000008058680230910722474_" gradientUnits="userSpaceOnUse" x1="747.589" y1="52.172" x2="757.452" y2="73.2" gradientTransform="rotate(-178.188 456.176 97.877)"><stop offset="0" style="stop-color:#595959"/><stop offset="1" style="stop-color:#fff"/></linearGradient><path style="clip-path:url(#SVGID_00000098210046589424803680000012486974035241261244_);fill:url(#SVGID_00000003825387725532221530000008058680230910722474_)" d="M142.6 119.6s19.7 6.4 21.5 7.1c1.7.7 9.5-2.4 9.5-2.4s-5.1 1.8-9.3.5c-4.3-1.2-21.7-5.2-21.7-5.2z"/></g></mask><linearGradient id="SVGID_00000048476914466646395460000002460294625827363990_" gradientUnits="userSpaceOnUse" x1="747.589" y1="52.172" x2="757.452" y2="73.2" gradientTransform="rotate(-178.188 456.176 97.877)"><stop offset="0" style="stop-color:#595959"/><stop offset="1" style="stop-color:#fff"/></linearGradient><path style="clip-path:url(#SVGID_00000141424915330815369850000002142803649901220245_);mask:url(#SVGID_00000073716154920401777170000013860566331383222948_);fill:url(#SVGID_00000048476914466646395460000002460294625827363990_)" d="M142.6 119.6s19.7 6.4 21.5 7.1c1.7.7 9.5-2.4 9.5-2.4s-5.1 1.8-9.3.5c-4.3-1.2-21.7-5.2-21.7-5.2z"/><linearGradient id="SVGID_00000124149407106432411810000014869417558824127915_" gradientUnits="userSpaceOnUse" x1="747.589" y1="52.172" x2="757.452" y2="73.2" gradientTransform="rotate(-178.188 456.176 97.877)"><stop offset="0" style="stop-color:#1e376a"/><stop offset="1" style="stop-color:#580b2b"/></linearGradient><path style="opacity:.51;fill:url(#SVGID_00000124149407106432411810000014869417558824127915_);enable-background:new" d="M142.6 119.6s19.7 6.4 21.5 7.1c1.7.7 9.5-2.4 9.5-2.4s-5.1 1.8-9.3.5c-4.3-1.2-21.7-5.2-21.7-5.2z"/><defs><path id="SVGID_00000088108334290537894180000014408693119685483648_" d="M1 1h1L1 2z"/></defs><defs><path id="SVGID_00000036939242237262007110000003040823913668737198_" d="M-1-1h-1l1-1z"/></defs><clipPath id="SVGID_00000001621941195410768060000003730226058923250578_"><use xlink:href="#SVGID_00000088108334290537894180000014408693119685483648_" style="overflow:visible"/></clipPath><clipPath id="SVGID_00000058575593091180141330000004962748529028382399_" style="clip-path:url(#SVGID_00000001621941195410768060000003730226058923250578_)"><use xlink:href="#SVGID_00000036939242237262007110000003040823913668737198_" style="overflow:visible"/></clipPath><defs><filter id="Adobe_OpacityMaskFilter_00000019638223059076141710000004333306462382037645_" filterUnits="userSpaceOnUse" x="142.4" y="118.2" width="73.7" height="32.1"><feColorMatrix values="1 0 0 0 0 0 1 0 0 0 0 0 1 0 0 0 0 0 1 0"/></filter></defs><mask maskUnits="userSpaceOnUse" x="142.4" y="118.2" width="73.7" height="32.1" id="SVGID_00000020383852921773082720000017316092295145621906_"><g style="filter:url(#Adobe_OpacityMaskFilter_00000019638223059076141710000004333306462382037645_)"><defs><path id="SVGID_00000005972028222121930870000003639334248873930914_" d="M1 1h1L1 2z"/></defs><defs><path id="SVGID_00000061455117884326245020000011924579241610986417_" d="M-1-1h-1l1-1z"/></defs><clipPath id="SVGID_00000139257480550808340420000000473681526467524031_" style="clip-path:url(#SVGID_00000058575593091180141330000004962748529028382399_)"><use xlink:href="#SVGID_00000005972028222121930870000003639334248873930914_" style="overflow:visible"/></clipPath><clipPath id="SVGID_00000116216488550961004850000007294268656171953582_" style="clip-path:url(#SVGID_00000139257480550808340420000000473681526467524031_)"><use xlink:href="#SVGID_00000061455117884326245020000011924579241610986417_" style="overflow:visible"/></clipPath><linearGradient id="SVGID_00000148629423411629316720000012998493599757337011_" gradientUnits="userSpaceOnUse" x1="733.362" y1="70.971" x2="729.911" y2="35.137" gradientTransform="rotate(-178.188 456.176 97.877)"><stop offset="0" style="stop-color:#595959"/><stop offset="1" style="stop-color:#fff"/></linearGradient><path style="clip-path:url(#SVGID_00000116216488550961004850000007294268656171953582_);fill:url(#SVGID_00000148629423411629316720000012998493599757337011_)" d="M207.1 150.3h.1c1.5-.2 5.4-2.6 5.5-3.6 0-.5-.1-1.4-.2-2.2.5.7 1.1 1.5 1.6 1.7.2 0 .3 0 .4-.1.7-.5 1.5-2.5 1.6-2.7l-.4-.2c-.2.6-.9 2.2-1.4 2.5h-.1c-.5-.1-1.4-1.5-1.9-2.4l-.4.1s.4 2.4.3 3.1c-.1.7-3.6 2.5-5 2.7h-.1c-1.9-.1-9.6-2.8-16.9-8.1-9-6.5-13.1-12.5-14.1-14.2-.1-.2-.2-.4-.3-.5-.4-.5-1.2-3.3-1-3.7l-.3-.3s-1.9 1.4-4.2 1.4c-2.6-.1-27.6-5.5-27.8-5.6l-.1.4c1 .2 25.3 5.5 27.9 5.6 1.7 0 3.2-.7 3.9-1.1-.1.6.9 3.1 1.3 3.5.1.1.1.2.3.5 1 1.7 5.2 7.7 14.2 14.3 12 8.9 15.5 8.8 17.1 8.9z"/></g></mask><linearGradient id="SVGID_00000009587886398756808670000015463735143612781193_" gradientUnits="userSpaceOnUse" x1="733.362" y1="70.971" x2="729.911" y2="35.137" gradientTransform="rotate(-178.188 456.176 97.877)"><stop offset="0" style="stop-color:#595959"/><stop offset="1" style="stop-color:#fff"/></linearGradient><path style="clip-path:url(#SVGID_00000058575593091180141330000004962748529028382399_);mask:url(#SVGID_00000020383852921773082720000017316092295145621906_);fill:url(#SVGID_00000009587886398756808670000015463735143612781193_)" d="M207.1 150.3h.1c1.5-.2 5.4-2.6 5.5-3.6 0-.5-.1-1.4-.2-2.2.5.7 1.1 1.5 1.6 1.7.2 0 .3 0 .4-.1.7-.5 1.5-2.5 1.6-2.7l-.4-.2c-.2.6-.9 2.2-1.4 2.5h-.1c-.5-.1-1.4-1.5-1.9-2.4l-.4.1s.4 2.4.3 3.1c-.1.7-3.6 2.5-5 2.7h-.1c-1.9-.1-9.6-2.8-16.9-8.1-9-6.5-13.1-12.5-14.1-14.2-.1-.2-.2-.4-.3-.5-.4-.5-1.2-3.3-1-3.7l-.3-.3s-1.9 1.4-4.2 1.4c-2.6-.1-27.6-5.5-27.8-5.6l-.1.4c1 .2 25.3 5.5 27.9 5.6 1.7 0 3.2-.7 3.9-1.1-.1.6.9 3.1 1.3 3.5.1.1.1.2.3.5 1 1.7 5.2 7.7 14.2 14.3 12 8.9 15.5 8.8 17.1 8.9z"/><linearGradient id="SVGID_00000075155899599772520050000012287956697143372975_" gradientUnits="userSpaceOnUse" x1="733.362" y1="70.971" x2="729.911" y2="35.137" gradientTransform="rotate(-178.188 456.176 97.877)"><stop offset="0" style="stop-color:#1e376a"/><stop offset="1" style="stop-color:#580b2b"/></linearGradient><path style="opacity:.51;fill:url(#SVGID_00000075155899599772520050000012287956697143372975_);enable-background:new" d="M207.1 150.3h.1c1.5-.2 5.4-2.6 5.5-3.6 0-.5-.1-1.4-.2-2.2.5.7 1.1 1.5 1.6 1.7.2 0 .3 0 .4-.1.7-.5 1.5-2.5 1.6-2.7l-.4-.2c-.2.6-.9 2.2-1.4 2.5h-.1c-.5-.1-1.4-1.5-1.9-2.4l-.4.1s.4 2.4.3 3.1c-.1.7-3.6 2.5-5 2.7h-.1c-1.9-.1-9.6-2.8-16.9-8.1-9-6.5-13.1-12.5-14.1-14.2-.1-.2-.2-.4-.3-.5-.4-.5-1.2-3.3-1-3.7l-.3-.3s-1.9 1.4-4.2 1.4c-2.6-.1-27.6-5.5-27.8-5.6l-.1.4c1 .2 25.3 5.5 27.9 5.6 1.7 0 3.2-.7 3.9-1.1-.1.6.9 3.1 1.3 3.5.1.1.1.2.3.5 1 1.7 5.2 7.7 14.2 14.3 12 8.9 15.5 8.8 17.1 8.9z"/><defs><path id="SVGID_00000160186715480962061290000012187923154667045037_" d="M1 1h1L1 2z"/></defs><defs><path id="SVGID_00000145754707294550808520000002154878270392299414_" d="M-1-1h-1l1-1z"/></defs><clipPath id="SVGID_00000027570480271673113770000016747746018226826139_"><use xlink:href="#SVGID_00000160186715480962061290000012187923154667045037_" style="overflow:visible"/></clipPath><clipPath id="SVGID_00000121975698294681367150000010784333681151538305_" style="clip-path:url(#SVGID_00000027570480271673113770000016747746018226826139_)"><use xlink:href="#SVGID_00000145754707294550808520000002154878270392299414_" style="overflow:visible"/></clipPath><defs><filter id="Adobe_OpacityMaskFilter_00000069386216024272533530000003174136899898651539_" filterUnits="userSpaceOnUse" x="199.2" y="132.9" width="18.4" height="19.1"><feColorMatrix values="1 0 0 0 0 0 1 0 0 0 0 0 1 0 0 0 0 0 1 0"/></filter></defs><mask maskUnits="userSpaceOnUse" x="199.2" y="132.9" width="18.4" height="19.1" id="SVGID_00000017506268190324310610000013445690435699723147_"><g style="filter:url(#Adobe_OpacityMaskFilter_00000069386216024272533530000003174136899898651539_)"><defs><path id="SVGID_00000147930803136249437730000014157084131917384352_" d="M1 1h1L1 2z"/></defs><defs><path id="SVGID_00000112591429904190146070000003897890791905152936_" d="M-1-1h-1l1-1z"/></defs><clipPath id="SVGID_00000096748729464942701850000018391256027832310429_" style="clip-path:url(#SVGID_00000121975698294681367150000010784333681151538305_)"><use xlink:href="#SVGID_00000147930803136249437730000014157084131917384352_" style="overflow:visible"/></clipPath><clipPath id="SVGID_00000039854772199528801880000017110198512664696231_" style="clip-path:url(#SVGID_00000096748729464942701850000018391256027832310429_)"><use xlink:href="#SVGID_00000112591429904190146070000003897890791905152936_" style="overflow:visible"/></clipPath><linearGradient id="SVGID_00000102544552926772322280000016473666427809224339_" gradientUnits="userSpaceOnUse" x1="720.605" y1="54.069" x2="688.691" y2="38.608" gradientTransform="rotate(-178.188 456.176 97.877)"><stop offset="0" style="stop-color:#595959"/><stop offset="1" style="stop-color:#fff"/></linearGradient><path style="clip-path:url(#SVGID_00000039854772199528801880000017110198512664696231_);fill:url(#SVGID_00000102544552926772322280000016473666427809224339_)" d="M199.2 132.9c7.1 5.4 10 11.3 10.3 11.7l-1.5-5.4s8.5 6.4 7.7 12.2c0 .2 0 .4-.1.6.7-1.1 1.2-2.3 1.6-3.4.1-.3.2-.7.3-1 0-.1 0-.2.1-.3.2-1.8-1.1-3.7-2.9-5.5-1.2-1.2-2.5-2.2-3.7-3.1l-4.4-2.4-3.6-1s-.4-.3-1.1-.7c-.7-.4-1.6-1-2.7-1.7z"/></g></mask><linearGradient id="SVGID_00000075162699700958346570000004911181299525873556_" gradientUnits="userSpaceOnUse" x1="720.605" y1="54.069" x2="688.691" y2="38.608" gradientTransform="rotate(-178.188 456.176 97.877)"><stop offset="0" style="stop-color:#595959"/><stop offset="1" style="stop-color:#fff"/></linearGradient><path style="clip-path:url(#SVGID_00000121975698294681367150000010784333681151538305_);mask:url(#SVGID_00000017506268190324310610000013445690435699723147_);fill:url(#SVGID_00000075162699700958346570000004911181299525873556_)" d="M199.2 132.9c7.1 5.4 10 11.3 10.3 11.7l-1.5-5.4s8.5 6.4 7.7 12.2c0 .2 0 .4-.1.6.7-1.1 1.2-2.3 1.6-3.4.1-.3.2-.7.3-1 0-.1 0-.2.1-.3.2-1.8-1.1-3.7-2.9-5.5-1.2-1.2-2.5-2.2-3.7-3.1l-4.4-2.4-3.6-1s-.4-.3-1.1-.7c-.7-.4-1.6-1-2.7-1.7z"/><linearGradient id="SVGID_00000168093097789658939780000000889802631304078239_" gradientUnits="userSpaceOnUse" x1="720.605" y1="54.069" x2="688.691" y2="38.608" gradientTransform="rotate(-178.188 456.176 97.877)"><stop offset="0" style="stop-color:#1e376a"/><stop offset="1" style="stop-color:#580b2b"/></linearGradient><path style="opacity:.41;fill:url(#SVGID_00000168093097789658939780000000889802631304078239_);enable-background:new" d="M199.2 132.9c7.1 5.4 10 11.3 10.3 11.7l-1.5-5.4s8.5 6.4 7.7 12.2c0 .2 0 .4-.1.6.7-1.1 1.2-2.3 1.6-3.4.1-.3.2-.7.3-1 0-.1 0-.2.1-.3.2-1.8-1.1-3.7-2.9-5.5-1.2-1.2-2.5-2.2-3.7-3.1l-4.4-2.4-3.6-1s-.4-.3-1.1-.7c-.7-.4-1.6-1-2.7-1.7z"/><path transform="rotate(-9.119 286.4 134.607)" class="st100" d="M285.7 126.2h1.4V143h-1.4z"/><path class="st101" d="m284.6 123.4-.2 3 1.4-.2z"/><path transform="rotate(-79.473 298.797 136.001)" class="st100" d="M290.4 135.3h16.8v1.4h-16.8z"/><path class="st101" d="m300.8 124.8-1.2 2.8 1.4.3z"/><path transform="rotate(-79.473 296.993 131.193)" class="st100" d="M288.6 130.5h16.8v1.4h-16.8z"/><path class="st101" d="m299.1 120-1.3 2.8 1.4.2z"/><path class="st5" d="M289.7 133.2h11.2v16.1h-11.2z"/><path class="st1" d="M284 133.2h11.2v16.1H284z"/><path class="st25" d="M260.1 150.2v1.5c0 .5.2.9.4.9h53.2c.2 0 .4-.4.4-.9v-1.5c0-.5-.2-.9-.4-.9h-53.2c-.2 0-.4.4-.4.9z"/><path d="M260.1 150.2v1.5c0 .5.2.9.3.9h42.2c.2 0 .3-.4.3-.9v-1.5c0-.5-.2-.9-.3-.9h-42.2c-.1 0-.3.4-.3.9z" style="fill:#bfcfeb"/><path class="st5" d="M273.6 152.5h37.8v55.1h-37.8z"/><path class="st1" d="M263 152.5h37.8v55.1H263z"/><path class="st5" d="M265.1 154.1h33.7v50.5h-33.7v-50.5zm33.3.4h-33v49.7h33v-49.7z"/><path class="st5" d="M265.2 170.8h33.4v.4h-33.4zM265.2 187.8h33.4v.4h-33.4zM278.5 157.4h6.2c.3 0 .5-.2.5-.5s-.2-.5-.5-.5h-6.2c-.3 0-.5.2-.5.5 0 .2.2.5.5.5zM278.5 174h6.2c.3 0 .5-.2.5-.5s-.2-.5-.5-.5h-6.2c-.3 0-.5.2-.5.5s.2.5.5.5zM278.5 191.4h6.2c.3 0 .5-.2.5-.5s-.2-.5-.5-.5h-6.2c-.3 0-.5.2-.5.5 0 .2.2.5.5.5zM49.7 170.6s5.9-6.9.4-11.3c0 0-4.1-2.5-7.4-2.3 0 0 4.7 7.9 3.2 8.7s-4.6-9.2-4.6-9.2-9.3-.9-12.2.5c0 0 7.9 6.5 6.3 6.9-1.7.4-10.2-6-10.2-6s-8.6 1.5-8.2 6.7c.5 5.3 3.4 6.9 4.7 6.7 1.3-.1 8.9-3.1 9.1-2s-4.4 4.6-7.7 4.7c0 0 6.1 6.7 10.1 4.8s4.4-5 6.9-6.2 4.7-1.1 3.6 0c-1 1.2-5.6 2.3-7 4.9-1.4 2.5-2.7 4.3 1.4 3.6 4.2-.6 11-3.7 11.3-7.2s.3-3.3.3-3.3z"/><path class="st5" d="M21.1 164.8s23.4-.9 28.6 5.8c0 0 1.1 3.4 4.7 6.5l.5 1.5s-4.1-4.3-5.5-4.5c0 0 2.2-8.3-28.3-9.3z"/><path class="st5" d="M54.3 177.2s5 3.7 5.4 10.4l-.9.1s-1.6-6.9-4.5-9.6c-2.9-2.7 0-.9 0-.9z"/><path class="st1" d="M70.4 161.9s-9.4-5.3-5-12.5c0 0 3.5-4.4 7.3-5.5 0 0-2 10.7 0 11s1.4-12.1 1.4-12.1 10-4.8 13.9-4.4c0 0-6.2 10.5-4.2 10.2s8.9-10.8 8.9-10.8 10.2-1.9 11.8 4.2c1.6 6-1 9.1-2.5 9.4-1.5.4-11.2.3-11 1.5.3 1.3 6.8 3.3 10.5 2.1 0 0-4 10-9.3 9.4-5.3-.5-6.9-3.8-10.2-4-3.3-.3-5.7.6-4 1.5 1.6.9 7.2.3 9.8 2.5 2.6 2.2 4.8 3.6-.1 4.6s-13.7.4-15.5-3.4l-1.8-3.7z"/><path class="st1" d="M99.9 143.8s-26.5 8.6-29.5 18.1c0 0 .1 4.3-2.5 9.2v1.9s2.8-6.4 4.3-7.3c0 0-5.9-8.3 27.7-21.9z"/><path class="st1" d="M67.9 171.1s-4.1 6.2-1.8 13.7l1-.3s-1-8.3 1.1-12.5c2.3-4.1-.3-.9-.3-.9zM55.4 154.6s12.5-7 6.6-16.4c0 0-4.7-5.8-9.6-7.3 0 0 2.7 14.1 0 14.4-2.7.3-1.8-15.9-1.8-15.9s-13.1-6.3-18.3-5.8c0 0 8.1 13.8 5.5 13.5-2.7-.3-11.8-14.3-11.8-14.3s-13.5-2.5-15.6 5.5c-2.2 8 1.3 12 3.3 12.5s14.8.3 14.4 2c-.3 1.7-9 4.3-13.8 2.8 0 0 5.3 13.1 12.3 12.5 7-.7 9.1-5 13.5-5.3 4.3-.3 7.5.8 5.3 2s-9.5.4-13 3.3c-3.5 3-6.3 4.8.2 6.1s18.1.5 20.4-4.5l2.4-5.1z"/><path class="st1" d="M16.5 130.7s34.9 11.3 38.9 23.9c0 0-.2 5.6 3.3 12.1v2.5s-3.7-8.5-5.6-9.6c0 0 7.8-11-36.6-28.9zM58.7 166.7s5.4 8.2 2.3 18.1l-1.4-.4s1.3-11-1.5-16.5c-2.7-5.4.6-1.2.6-1.2z"/><path class="st5" d="M55.8 206.4c-13.5 0-24.4-10.9-24.4-24.4h48.8c0 13.5-10.9 24.4-24.4 24.4z"/><path class="st5" d="M31.1 207.6h49.5c0-1.7-1.3-3-3-3H34.1c-1.7 0-3 1.4-3 3z"/><path class="st1" d="M30.8 182H81v.7H30.8z"/><path class="st12" d="M343.2 209.2H.8c-.4 0-.8-.4-.8-.8s.4-.8.8-.8h342.4c.4 0 .8.4.8.8 0 .5-.4.8-.8.8zM163.4 123.6c0 .4.4.8.8.8h19c0-.9-.7-1.6-1.6-1.6h-17.4c-.5.1-.8.4-.8.8z"/><path d="M162.9 102.9H134c-.5 0-.9.5-.7 1l6.8 19.9c.1.3.4.5.7.5h29c.5 0 .9-.5.7-1l-7-19.9c0-.3-.3-.5-.6-.5z" style="fill:#0c243f"/><path class="st2" d="m132.8 104 6.8 19.9c.1.3.4.5.7.5h29c.5 0 .9-.5.7-1l-7-19.9c-.1-.3-.4-.5-.7-.5h-28.9c-.4-.1-.8.5-.6 1z"/><path d="M169.4 124.9h-29c-.6 0-1-.4-1.2-.9l-6.8-19.9c-.1-.4-.1-.8.2-1.2.2-.3.6-.5 1-.5h28.9c.5 0 1 .3 1.2.9l7 19.9c.1.4.1.8-.2 1.2-.3.3-.7.5-1.1.5zm-36.1-21.1 6.8 19.9c0 .1.1.2.3.2h29c.1 0 .2-.1.2-.1s.1-.1 0-.3l-7-19.9c0-.1-.1-.2-.3-.2h-28.9c-.1 0-.2.1-.2.1.1.1 0 .2.1.3z" style="fill:#f7f7f7"/><path class="st4" d="M148.9 113.5c.2.8 1 1.5 1.8 1.5s1.3-.7 1.1-1.5-1-1.5-1.8-1.5-1.3.7-1.1 1.5z"/><path class="st17" d="M91.9 122.7h.8v-14l-8.3-21.2L99.3 76l-.5-.7-15.4 11.9 8.5 21.7z"/><path class="st17" d="M101 77.4c.4-.3.5-.8.2-1.2l-1.2-1.7c-.3-.4-.8-.5-1.2-.2-.4.3-.5.8-.2 1.2l1.2 1.7c.3.4.8.5 1.2.2zM85.2 87.2c0-.6-.5-1.1-1.1-1.1s-1.1.5-1.1 1.1.5 1.1 1.1 1.1c.6 0 1.1-.5 1.1-1.1zM88.4 124.7h8.2c0-1.3-1-2.3-2.3-2.3h-3.5c-1.4-.1-2.4 1-2.4 2.3z"/><path class="st17" d="M91.5 109.7h1.7v13h-1.7z"/><path class="st1" d="m99.1 89.5.2.2c1.1 1 4.8-.8 8.4-4s5.7-6.7 4.9-7.9l-.1-.1-.1-.1c-3.3-3.7-8.9-4-12.5-.7-3.7 3.4-4.1 9-.8 12.6z"/><path class="st12" d="M99.2 89.6c0 .1.1.1 0 0 .1.1.1.1 0 0 1.2 1.1 4.9-.7 8.5-3.9s5.7-6.7 4.9-7.9c0 0 0-.1-.1-.1-.8-.7-2.8-.1-5.2 1.5-1 .7-2.1 1.5-3.2 2.4-.8.8-1.6 1.5-2.3 2.3-2.2 2.6-3.3 4.8-2.6 5.7z"/><path d="M101.8 84c.6.5 1.4.8 2.3.8 2 0 3.7-1.6 3.7-3.7 0-.7-.2-1.3-.5-1.9-1 .7-2.1 1.5-3.2 2.4-.9.9-1.6 1.7-2.3 2.4z" style="fill:#bfbebe"/><path class="st3" d="M186.1 117.2c0 .9-.2 1.8-.7 2.6-.3.5-.7 1-1.1 1.4 4.4 4.6 15.4 7.9 15.4 7.9l5.5-7.6s-10.2-1.1-19.1-4.3z"/><path class="st31" d="M198.8 124.5s-6.5-.6-13.3-4.9c0 .1 0 .1-.1.2-.3.5-.7 1-1.1 1.4 1.6 1.8 7.5 5.9 17.1 8.4l-2.6-5.1zM199.8 122.5l3.5 7c18-3.9 25.8-17.7 25.8-17.7l-9.5-5.3c-4.6 5.4-10 11.4-19.8 16"/><defs><path id="SVGID_00000113337251417299869330000002882509483261418128_" d="m199.8 122.5 3.5 7c18-3.9 25.8-17.7 25.8-17.7l-9.5-5.3c-4.6 5.4-10 11.4-19.8 16"/></defs><clipPath id="SVGID_00000093895652655514197490000014455198991793597103_"><use xlink:href="#SVGID_00000113337251417299869330000002882509483261418128_" style="overflow:visible"/></clipPath><path style="clip-path:url(#SVGID_00000093895652655514197490000014455198991793597103_);fill:#e6e6e5" d="M226.3 111.1s-1.5 6.2-25 15.1c-5.2 1.9-.4-7.5-.4-7.5l18.1-14.6 7.3 7z"/><circle class="st33" cx="201.8" cy="125.2" r="4.5"/><path class="st29" d="M203.8 126.3c-.5.9-1.6 1.4-2.6 1.1-1.2-.4-1.9-1.6-1.6-2.8 0-.2.1-.3.2-.5.5-.9 1.6-1.4 2.6-1.1.6.2 1.1.6 1.4 1.1.3.5.4 1.2.2 1.7 0 .2-.1.3-.2.5z"/><circle class="st33" cx="224.3" cy="109.2" r="5.4"/><path class="st31" d="M181.1 123.3c-1.9.5-3.8.3-5.5-.6l1.6-2.9c1.8 1 4.3.3 5.4-1.6 1-1.9.4-4.3-1.6-5.4l1-1.7.7-.5c3.5 1.9 4.8 5.7 2.8 9.2-.9 1.7-2.5 3-4.4 3.5z"/><path class="st3" d="M185.5 119.6c.3.2 3.2-5.6-2.8-9l-.7.5c3.4 1.6 4.4 4.5 3.5 8.5z"/><path class="st31" d="m186.6 117.3-.9 2c.6-1.1 1.3-1.6 2.5-1.5l-1.6-.5z"/><circle class="st3" cx="182.4" cy="112.7" r=".7"/><circle class="st3" cx="178.1" cy="122" r=".7"/><ellipse transform="rotate(-65.323 183.015 111.255)" class="st31" cx="183" cy="111.3" rx=".2" ry=".3"/><path class="st107" d="M82.5 129.3h167.8c1.3 0 2.4-1.1 2.4-2.4 0-1.3-1.1-2.4-2.4-2.4H82.5c-1.3 0-2.4 1.1-2.4 2.4 0 1.3 1 2.4 2.4 2.4z"/><path class="st107" d="M83.2 208.9c-.7-.1-1.2-.7-1.1-1.4l10.4-80.7 5.8.2-14 81.1c-.1.5-.6.9-1.1.8zM253.2 208.9c.7-.1 1.2-.7 1.1-1.4l-10.4-80.7-5.8.2 14 81.1c.1.5.6.9 1.1.8z"/><g style="opacity:.3"><path d="M69.4 92c1.7-2.1 2.7-4.8 2.7-7.8 0-6.9-5.6-12.5-12.5-12.5s-12.5 5.6-12.5 12.5 5.6 12.5 12.5 12.5c2.6 0 4.9-.8 6.9-2.1l4.8 2.6-1.9-5.2z" style="fill:#939598"/><path class="st2" d="M54.5 80.8c1.2-1.2 3.1-1.2 4.3 0l.8.8.8-.8c1.2-1.2 3.1-1.2 4.3 0 1.2 1.2 1.2 3.1 0 4.3l-3 2.9c-.5.5-1.1.7-1.7.8-.9.1-1.9-.2-2.6-.9l-2.9-3c-1.3-1-1.2-2.9 0-4.1z"/></g></svg>